<svg id="Layer_1" data-name="Layer 1" xmlns="http://www.w3.org/2000/svg" viewBox="0 0 512 512"><defs><style>.cls-1{fill:#33a952;}.cls-2{fill:#fbbc05;}.cls-3{fill:#ea4335;}.cls-4{fill:#176bff;}</style></defs><title>icons</title><path class="cls-1" d="M263.48,29.79V68.42l164.18,94.82V352.76L263.48,447.58v38.63L461.1,372.11V143.89Z"/><rect class="cls-2" x="173.35" y="186.66" width="33.44" height="71.34"/><path class="cls-3" d="M241.61,264.68h39.34a4.39,4.39,0,0,1,4.39,4.39V373.66a4.39,4.39,0,0,1-4.39,4.39H241.61a0,0,0,0,1,0,0V264.68a0,0,0,0,1,0,0Z" transform="translate(584.84 57.89) rotate(90)"/><rect class="cls-2" x="320.16" y="186.66" width="33.44" height="71.34"/><polygon class="cls-4" points="99.31 163.25 99.31 352.75 263.48 447.58 263.48 486.21 65.86 372.11 65.86 143.9 263.48 29.79 263.48 68.42 99.31 163.25"/></svg>