<svg id="Layer_1" data-name="Layer 1" xmlns="http://www.w3.org/2000/svg" viewBox="0 0 1547.26 500.74"><defs><style>.cls-1{fill:#fff;}.cls-2{fill:#fff;}</style></defs><title>icons</title><polygon class="cls-1" points="286.21 31.08 91.89 143.27 91.89 215.82 285.79 327.76 286.31 290.84 189.52 235.13 189.52 198.07 382.06 86.66 350.61 68.51 157.74 179.73 157.74 217.06 125.34 198.07 125.34 161.02 318.3 49.61 286.21 31.08"/><polygon class="cls-1" points="93.83 365.79 286.04 475.66 349.97 439.38 349.97 216.6 317.88 234.87 317.88 346.29 285.79 364.82 93.83 253.78 93.83 290.84 285.79 401.51 318.67 383.8 317.88 420.4 285.79 438.93 93.83 327.63 93.83 365.79"/><polygon class="cls-1" points="478.32 365.07 479.44 142.03 414.39 104.65 221.61 216.6 254.28 235.26 349.97 179.54 382.06 198.07 381.47 420.53 414.67 400.89 414.94 179.73 383.16 161.21 414.15 142.49 446.24 161.02 446.23 383.6 478.32 365.07"/><path class="cls-2" d="M616.81,276.17q0,13.36-13.19,13.37h-44.9q-13,0-13-13.37V242.4h21.51v28.34h28.15V234l-26.84-18.43V211l26.84-18.15V162H567.23v26.66H545.72v-32q0-13.47,13.28-13.47h44.62q13.18,0,13.19,13.47v34.42a15.21,15.21,0,0,1-7.3,13.47L596,213.31l13.74,8.61q7.11,4.4,7.12,13.18Z"/><path class="cls-2" d="M693.6,162.52H655.72v43.31h32.36v19H655.72v64.73H633.83V143.16H693.6Z"/><path class="cls-2" d="M815.66,276.17q0,13.36-13.28,13.37h-44q-13.2,0-13.19-13.37V241.28H767v29.84h26.76V242.4l-43.87-41.53a15.51,15.51,0,0,1-4.77-11.69V156.63q0-13.47,13.19-13.47h44q13.27,0,13.28,13.28v32.74H793.78v-27.6H767v26.48l43.87,41.34q4.77,4.48,4.77,11.88Z"/><path class="cls-2" d="M906.86,276.17q0,13.36-13.28,13.37H846.06q-13,0-13-13.37V156.63q0-13.47,13-13.47h47.52q13.27,0,13.28,13.47ZM885,270.74V162H855V270.74Z"/><path class="cls-2" d="M982,289.54H924.45V143.16h21.88V270H982Z"/><path class="cls-2" d="M1068.21,276.17q0,13.36-13.47,13.37h-46.49q-13.28,0-13.28-13.37v-133h21.89V270.74h29.46V143.16h21.89Z"/><path class="cls-2" d="M1149.4,162.52h-24.13v127h-21.8v-127h-24.13V143.16h70.06Z"/><path class="cls-2" d="M1182.79,289.54H1160.9V143.16h21.89Z"/><path class="cls-2" d="M1274.55,276.17q0,13.36-13.28,13.37h-47.52q-13,0-13-13.37V156.63q0-13.47,13-13.47h47.52q13.27,0,13.28,13.47Zm-21.89-5.43V162h-30V270.74Z"/><path class="cls-2" d="M1366.31,289.54h-19.17l-35.08-92.13a55.65,55.65,0,0,1,1.4,10.57v81.56h-21.32V143.16h19.17l35.08,90.26a55,55,0,0,1-1.41-10.57V143.16h21.33Z"/><path class="cls-2" d="M1453.21,276.21q0,13.34-13.24,13.33h-43.9q-13.14,0-13.14-13.33V241.45h21.81v29.73h26.66V242.57l-43.71-41.38a15.47,15.47,0,0,1-4.76-11.65V157.1q0-13.41,13.14-13.42H1440q13.24,0,13.24,13.24v32.62H1431.4V162h-26.66v26.38l43.71,41.19a15.51,15.51,0,0,1,4.76,11.84Z"/><path class="cls-2" d="M547.74,313.69h19.91a28.77,28.77,0,0,1,13.29,3,21.8,21.8,0,0,1,9,8.33,25.25,25.25,0,0,1,0,24.64,21.87,21.87,0,0,1-9,8.33,28.77,28.77,0,0,1-13.29,3H547.74Zm19.5,41.37a21.8,21.8,0,0,0,10.09-2.23,16.1,16.1,0,0,0,6.72-6.24,19.43,19.43,0,0,0,0-18.56,16.1,16.1,0,0,0-6.72-6.24,21.8,21.8,0,0,0-10.09-2.23H554.49v35.5Z"/><path class="cls-2" d="M602.64,317.06a4,4,0,0,1-1.25-3,4.09,4.09,0,0,1,1.25-3,4.27,4.27,0,0,1,3.14-1.25,4.35,4.35,0,0,1,3.13,1.18,3.86,3.86,0,0,1,1.25,2.94,4.15,4.15,0,0,1-1.25,3.07,4.24,4.24,0,0,1-3.13,1.25A4.32,4.32,0,0,1,602.64,317.06Zm-.1,8.1H609v35.77h-6.48Z"/><path class="cls-2" d="M655.58,325.16v30.91q0,9.38-4.65,13.87T637,374.43a33.35,33.35,0,0,1-9.65-1.38A19.19,19.19,0,0,1,620,369.1l3.1-5a18.37,18.37,0,0,0,6.18,3.41,23.5,23.5,0,0,0,7.59,1.25q6.28,0,9.28-3t3-9v-2.84a14.33,14.33,0,0,1-5.64,4.15,18.66,18.66,0,0,1-7.25,1.39,19.48,19.48,0,0,1-9.29-2.2,16.38,16.38,0,0,1-6.51-6.14,18.38,18.38,0,0,1,0-18,16.17,16.17,0,0,1,6.51-6.11,19.82,19.82,0,0,1,9.29-2.16,19,19,0,0,1,7.52,1.49,13.94,13.94,0,0,1,5.7,4.38v-5.53Zm-12.31,27.13a11,11,0,0,0,4.38-4.15,11.57,11.57,0,0,0,1.59-6,11,11,0,0,0-3.44-8.4,13.87,13.87,0,0,0-17.75,0,10.93,10.93,0,0,0-3.44,8.4,11.56,11.56,0,0,0,1.58,6,11,11,0,0,0,4.39,4.15,13.41,13.41,0,0,0,6.38,1.49A13.27,13.27,0,0,0,643.27,352.29Z"/><path class="cls-2" d="M668,317.06a4,4,0,0,1-1.24-3,4.08,4.08,0,0,1,1.24-3,4.28,4.28,0,0,1,3.14-1.25,4.37,4.37,0,0,1,3.14,1.18,3.9,3.9,0,0,1,1.25,2.94,4.19,4.19,0,0,1-1.25,3.07,4.27,4.27,0,0,1-3.14,1.25A4.34,4.34,0,0,1,668,317.06Zm-.1,8.1h6.48v35.77h-6.48Z"/><path class="cls-2" d="M706.87,358.84a9.5,9.5,0,0,1-3.5,1.85,14.64,14.64,0,0,1-4.32.65q-5.4,0-8.37-2.91t-3-8.3V330.49h-6.08v-5.33h6.08v-7.83h6.48v7.83h10.26v5.33H694.19v19.37a6.29,6.29,0,0,0,1.45,4.46,5.42,5.42,0,0,0,4.15,1.55,7.77,7.77,0,0,0,5.06-1.69Z"/><path class="cls-2" d="M739.1,328.47q3.95,3.64,3.95,10.86v21.6h-6.14v-4.72a10.26,10.26,0,0,1-4.63,3.81,17.57,17.57,0,0,1-7.12,1.32q-6,0-9.61-2.91a9.28,9.28,0,0,1-3.61-7.62,9.4,9.4,0,0,1,3.44-7.6q3.43-2.86,10.93-2.86h10.26v-1.29a8.26,8.26,0,0,0-2.43-6.41c-1.62-1.48-4-2.23-7.15-2.23a18.84,18.84,0,0,0-6.21,1.05,15.94,15.94,0,0,0-5.13,2.8l-2.7-4.86a19.7,19.7,0,0,1,6.61-3.41,28,28,0,0,1,8.17-1.18Q735.16,324.82,739.1,328.47Zm-6.44,26.22a9.51,9.51,0,0,0,3.91-4.69v-5h-10q-8.24,0-8.23,5.54a5,5,0,0,0,2.09,4.25,9.59,9.59,0,0,0,5.8,1.55A12.07,12.07,0,0,0,732.66,354.69Z"/><path class="cls-2" d="M755.06,310.85h6.48v50.08h-6.48Z"/><path class="cls-2" d="M836.79,360.93l-.07-34.42-17.07,28.68h-3.11l-17.07-28.48v34.22H793V313.69h5.53l19.71,33.2,19.44-33.2h5.53l.07,47.24Z"/><path class="cls-2" d="M880.9,328.47q3.95,3.64,3.94,10.86v21.6H878.7v-4.72a10.29,10.29,0,0,1-4.62,3.81,17.6,17.6,0,0,1-7.12,1.32q-6,0-9.62-2.91a9.28,9.28,0,0,1-3.61-7.62,9.43,9.43,0,0,1,3.44-7.6q3.45-2.86,10.94-2.86h10.25v-1.29a8.29,8.29,0,0,0-2.42-6.41c-1.62-1.48-4-2.23-7.16-2.23a18.93,18.93,0,0,0-6.21,1.05,16.15,16.15,0,0,0-5.13,2.8l-2.7-4.86a19.76,19.76,0,0,1,6.62-3.41,27.85,27.85,0,0,1,8.16-1.18Q876.95,324.82,880.9,328.47Zm-6.45,26.22a9.46,9.46,0,0,0,3.91-4.69v-5h-10q-8.24,0-8.24,5.54a5,5,0,0,0,2.09,4.25,9.62,9.62,0,0,0,5.81,1.55A12.06,12.06,0,0,0,874.45,354.69Z"/><path class="cls-2" d="M908.06,326.44a18.1,18.1,0,0,1,8-1.62v6.28a13.64,13.64,0,0,0-1.48-.07,10.91,10.91,0,0,0-8.27,3.14q-3,3.13-3,8.94v17.82h-6.48V325.16h6.21v6A11.05,11.05,0,0,1,908.06,326.44Z"/><path class="cls-2" d="M938,344.26l-7.43,6.88v9.79h-6.47V310.85h6.47V343L950,325.16h7.83l-15,14.78,16.53,21h-8Z"/><path class="cls-2" d="M996.34,345.2h-29a11.21,11.21,0,0,0,4.15,7.6,13.56,13.56,0,0,0,8.81,2.87,13.26,13.26,0,0,0,10.32-4.32l3.58,4.18a15.72,15.72,0,0,1-6,4.32A22.73,22.73,0,0,1,970,359a16.61,16.61,0,0,1-6.79-6.52,18.71,18.71,0,0,1-2.39-9.44,18.93,18.93,0,0,1,2.33-9.39,16.58,16.58,0,0,1,6.41-6.51,18.27,18.27,0,0,1,9.21-2.33,17.94,17.94,0,0,1,9.15,2.33,16.38,16.38,0,0,1,6.27,6.51,19.86,19.86,0,0,1,2.26,9.59A18.15,18.15,0,0,1,996.34,345.2ZM971,333.12a11.41,11.41,0,0,0-3.68,7.43h22.94a11.49,11.49,0,0,0-3.67-7.39,12.09,12.09,0,0,0-15.59,0Z"/><path class="cls-2" d="M1025.56,358.84a9.47,9.47,0,0,1-3.51,1.85,14.54,14.54,0,0,1-4.32.65q-5.4,0-8.37-2.91t-3-8.3V330.49h-6.07v-5.33h6.07v-7.83h6.48v7.83h10.26v5.33h-10.26v19.37a6.33,6.33,0,0,0,1.45,4.46,5.42,5.42,0,0,0,4.15,1.55,7.81,7.81,0,0,0,5.07-1.69Z"/><path class="cls-2" d="M1033.49,317.06a4,4,0,0,1-1.25-3,4.09,4.09,0,0,1,1.25-3,4.27,4.27,0,0,1,3.14-1.25,4.39,4.39,0,0,1,3.14,1.18A3.9,3.9,0,0,1,1041,314a4.19,4.19,0,0,1-1.25,3.07,4.61,4.61,0,0,1-6.28,0Zm-.1,8.1h6.48v35.77h-6.48Z"/><path class="cls-2" d="M1082.15,328.77q4,3.94,4,11.58v20.58h-6.48V341.09c0-3.47-.84-6.08-2.5-7.83s-4-2.63-7.15-2.63a11.16,11.16,0,0,0-8.31,3.07c-2,2.05-3,5-3,8.81v18.42h-6.48V325.16h6.21v5.4a12.59,12.59,0,0,1,5.3-4.25,18.46,18.46,0,0,1,7.59-1.49Q1078.13,324.82,1082.15,328.77Z"/><path class="cls-2" d="M1132.6,325.16v30.91q0,9.38-4.66,13.87t-13.9,4.49a33.3,33.3,0,0,1-9.65-1.38,19.23,19.23,0,0,1-7.43-3.95l3.11-5a18.22,18.22,0,0,0,6.17,3.41,23.61,23.61,0,0,0,7.6,1.25q6.27,0,9.28-3t3-9v-2.84a14.26,14.26,0,0,1-5.64,4.15,18.58,18.58,0,0,1-7.25,1.39,19.47,19.47,0,0,1-9.28-2.2,16.25,16.25,0,0,1-6.51-6.14,18.31,18.31,0,0,1,0-18A16,16,0,0,1,1104,327a19.8,19.8,0,0,1,9.28-2.16,18.9,18.9,0,0,1,7.52,1.49,14,14,0,0,1,5.71,4.38v-5.53Zm-12.32,27.13a11,11,0,0,0,4.39-4.15,11.56,11.56,0,0,0,1.58-6,10.93,10.93,0,0,0-3.44-8.4,13.87,13.87,0,0,0-17.75,0,11,11,0,0,0-3.44,8.4,11.57,11.57,0,0,0,1.59,6,11,11,0,0,0,4.38,4.15,13.44,13.44,0,0,0,6.38,1.49A13.27,13.27,0,0,0,1120.28,352.29Z"/><path class="cls-2" d="M1196.92,318.07q5.26,4.4,5.26,12.08t-5.26,12.09q-5.26,4.38-14.45,4.38H1170.8v14.31h-6.75V313.69h18.42Q1191.65,313.69,1196.92,318.07ZM1192.06,338c2.25-1.82,3.37-4.45,3.37-7.87s-1.12-6-3.37-7.86-5.52-2.73-9.79-2.73H1170.8v21.19h11.47Q1188.68,340.75,1192.06,338Z"/><path class="cls-2" d="M1211.83,310.85h6.48v50.08h-6.48Z"/><path class="cls-2" d="M1255.06,328.47q3.95,3.64,3.94,10.86v21.6h-6.14v-4.72a10.29,10.29,0,0,1-4.62,3.81,17.6,17.6,0,0,1-7.12,1.32q-6,0-9.62-2.91a9.28,9.28,0,0,1-3.61-7.62,9.43,9.43,0,0,1,3.44-7.6q3.45-2.86,10.94-2.86h10.26v-1.29a8.26,8.26,0,0,0-2.43-6.41c-1.62-1.48-4-2.23-7.16-2.23a18.93,18.93,0,0,0-6.21,1.05,16.15,16.15,0,0,0-5.13,2.8l-2.7-4.86a19.76,19.76,0,0,1,6.62-3.41,27.85,27.85,0,0,1,8.16-1.18Q1251.11,324.82,1255.06,328.47Zm-6.45,26.22a9.48,9.48,0,0,0,3.92-4.69v-5h-10q-8.24,0-8.24,5.54a5,5,0,0,0,2.1,4.25,9.56,9.56,0,0,0,5.8,1.55A12.06,12.06,0,0,0,1248.61,354.69Z"/><path class="cls-2" d="M1291.13,358.84a9.63,9.63,0,0,1-3.51,1.85,14.59,14.59,0,0,1-4.32.65q-5.4,0-8.37-2.91t-3-8.3V330.49h-6.07v-5.33H1272v-7.83h6.48v7.83h10.26v5.33h-10.26v19.37a6.29,6.29,0,0,0,1.45,4.46,5.42,5.42,0,0,0,4.15,1.55,7.81,7.81,0,0,0,5.07-1.69Z"/><path class="cls-2" d="M1306.25,322.06v3.1h10.39v5.33h-10.26v30.44h-6.48V330.49h-6.07v-5.33h6.07V322a11.4,11.4,0,0,1,3.11-8.44q3.1-3.1,8.7-3.1a14.68,14.68,0,0,1,4,.54,10,10,0,0,1,3.24,1.55l-2,4.93a8.05,8.05,0,0,0-5-1.69Q1306.25,315.78,1306.25,322.06Z"/><path class="cls-2" d="M1328,359a17.06,17.06,0,0,1-6.65-6.51,19.67,19.67,0,0,1,0-18.83,16.85,16.85,0,0,1,6.65-6.48,19.63,19.63,0,0,1,9.58-2.33,19.43,19.43,0,0,1,9.55,2.33,17,17,0,0,1,6.62,6.48,19.74,19.74,0,0,1,0,18.83,17.18,17.18,0,0,1-6.62,6.51,19.14,19.14,0,0,1-9.55,2.37A19.33,19.33,0,0,1,1328,359Zm15.76-4.89a11.18,11.18,0,0,0,4.28-4.45,14.74,14.74,0,0,0,0-13.16,10.94,10.94,0,0,0-4.28-4.43,13.08,13.08,0,0,0-12.35,0,11.1,11.1,0,0,0-4.32,4.43,14.41,14.41,0,0,0,0,13.16,11.35,11.35,0,0,0,4.32,4.45,12.79,12.79,0,0,0,12.35,0Z"/><path class="cls-2" d="M1376.3,326.44a18.13,18.13,0,0,1,8-1.62v6.28a13.64,13.64,0,0,0-1.48-.07,10.91,10.91,0,0,0-8.27,3.14q-3,3.13-3,8.94v17.82h-6.48V325.16h6.21v6A11.05,11.05,0,0,1,1376.3,326.44Z"/><path class="cls-2" d="M1447.74,328.74q3.94,3.92,4,11.61v20.58h-6.48V341.09q0-5.2-2.4-7.83c-1.59-1.76-3.88-2.63-6.85-2.63a10.23,10.23,0,0,0-7.82,3.07c-1.94,2.05-2.91,5-2.91,8.81v18.42h-6.48V341.09q0-5.2-2.39-7.83a8.78,8.78,0,0,0-6.85-2.63,10.24,10.24,0,0,0-7.83,3.07c-1.94,2.05-2.9,5-2.9,8.81v18.42h-6.48V325.16h6.21v5.33a12.55,12.55,0,0,1,5.13-4.22,17.27,17.27,0,0,1,7.22-1.45,15.88,15.88,0,0,1,7.42,1.69,11.69,11.69,0,0,1,5,4.93,13.76,13.76,0,0,1,5.64-4.86,18.38,18.38,0,0,1,8.13-1.76Q1443.79,324.82,1447.74,328.74Z"/></svg>