<svg id="Layer_1" data-name="Layer 1" xmlns="http://www.w3.org/2000/svg" viewBox="0 0 512 512"><defs><style>.cls-1{fill:#fbbc05;}.cls-2{fill:#33a952;}.cls-3{fill:#ea4335;}.cls-4{fill:#176bff;}</style></defs><title>icons</title><polygon class="cls-1" points="344.66 311.76 247.38 367.95 247.38 329.58 311.41 292.61 311.41 218.6 247.38 181.56 247.38 143.26 344.66 199.38 344.66 311.76"/><polygon class="cls-2" points="445 141.47 445 369.68 247.38 483.78 247.38 445.15 411.56 350.39 411.56 160.82 247.38 66 247.38 27.36 445 141.47"/><polygon class="cls-3" points="150.1 311.76 247.38 367.95 247.38 329.58 183.35 292.61 183.35 218.6 247.38 181.56 247.38 143.26 150.1 199.38 150.1 311.76"/><polygon class="cls-4" points="49.76 141.47 49.76 369.68 247.38 483.78 247.38 445.15 83.2 350.39 83.2 160.82 247.38 66 247.38 27.36 49.76 141.47"/></svg>