<svg id="Layer_1" data-name="Layer 1" xmlns="http://www.w3.org/2000/svg" viewBox="0 0 512 512"><defs><style>.cls-1{fill:#ea4335;}.cls-2{fill:#fbbc05;}.cls-3{fill:#33a952;}.cls-4{fill:#176bff;}</style></defs><title>icons</title><path class="cls-1" d="M261.19,33.18v38.3L424,165.57v188l-162.84,94V486l196-113.25V146.35Z"/><rect class="cls-2" x="293.3" y="179.61" width="26.6" height="107.02" transform="matrix(0.85, -0.53, 0.53, 0.85, -76.82, 196.53)"/><rect class="cls-2" x="162.46" y="217.62" width="107.03" height="26.6" transform="translate(-89.6 312.11) rotate(-61.8)"/><rect class="cls-2" x="209.19" y="298.1" width="107.02" height="26.6" transform="translate(-9.6 8.36) rotate(-1.79)"/><path class="cls-3" d="M261.12,112.9a50.47,50.47,0,1,0,50.47,50.47A50.44,50.44,0,0,0,261.12,112.9Zm0,78.06a27.6,27.6,0,1,1,27.59-27.59A27.55,27.55,0,0,1,261.12,191Z"/><path class="cls-1" d="M349.66,252.16a50.47,50.47,0,1,0,50.47,50.47A50.43,50.43,0,0,0,349.66,252.16Zm0,78.07a27.6,27.6,0,1,1,27.6-27.6A27.56,27.56,0,0,1,349.66,330.23Z"/><path class="cls-4" d="M177.48,252.16A50.47,50.47,0,1,0,228,302.63,50.43,50.43,0,0,0,177.48,252.16Zm0,78.07a27.6,27.6,0,1,1,27.59-27.6A27.56,27.56,0,0,1,177.48,330.23Z"/><polygon class="cls-4" points="98.27 165.57 98.27 353.55 261.19 447.58 261.19 485.94 65.09 372.7 65.09 146.35 261.19 33.18 261.19 71.48 98.27 165.57"/></svg>