<svg id="Layer_1" data-name="Layer 1" xmlns="http://www.w3.org/2000/svg" viewBox="0 0 512 512"><defs><style>.cls-1{fill:#176bff;}.cls-2{fill:#fbbc05;}.cls-3{fill:#33a952;}.cls-4{fill:#ea4335;}</style></defs><title>icons</title><polygon class="cls-1" points="257.86 27.36 257.86 66 422.04 160.82 422.04 309.43 455.49 331.84 455.49 141.47 257.86 27.36"/><polygon class="cls-2" points="364.92 383.38 257.86 445.15 257.86 483.78 395.84 404.12 370.24 386.97 364.92 383.38"/><path class="cls-3" d="M455.51,369.19v.5l-29.87,17.25-30.93-20.77-65.82-44.1-28.17-18.89a63.78,63.78,0,0,0,12.17-14.74,66.78,66.78,0,0,0,5.21-10.92.43.43,0,0,1,.13-.31L346.34,296l75.73,50.76Z"/><path class="cls-3" d="M257.87,158.37a97.25,97.25,0,1,0,56.72,176.18,90.4,90.4,0,0,0,14.3-12.48,107,107,0,0,0,7.91-9.73,93.07,93.07,0,0,0,9.35-16,1.1,1.1,0,0,1,.19-.31,96.67,96.67,0,0,0,8.4-31.75q.38-4.23.38-8.66A97.26,97.26,0,0,0,257.87,158.37Zm64.06,97.25a64.83,64.83,0,0,1-3.7,21.59.43.43,0,0,0-.13.31,66.78,66.78,0,0,1-5.21,10.92,63.78,63.78,0,0,1-12.17,14.74,60.65,60.65,0,0,1-10,7.41,62.94,62.94,0,0,1-32.81,9.09,64.06,64.06,0,1,1,62.43-78.49A64.87,64.87,0,0,1,321.93,255.62Z"/><polygon class="cls-4" points="93.69 160.82 93.69 350.39 257.86 445.15 257.86 483.78 60.24 369.68 60.24 141.47 257.86 27.36 257.86 66 93.69 160.82"/></svg>